<svg xmlns="http://www.w3.org/2000/svg" version="1.1" xmlns:xlink="http://www.w3.org/1999/xlink" xmlns:svgjs="http://svgjs.dev/svgjs" width="100%" height="100%" viewBox="0 0 1000 600"><rect width="1000" height="600" x="0" y="0" fill="black"/><g><rect width="333.3333333333333" height="333.3333333333333" rx="13.333333333333334" ry="13.333333333333334" y="223.84208233846883" fill="RED" transform="matrix(0.619978642828177,0,0,0.619978642828177,0,57.89292508614963)" x="201.6197967529297"/><path d="M360.6828655456284 325.27921032281597Q365.1855140546259 328.51640859725865 368.481570479513 337.05084041169835Q371.7776269044 345.61470130136024 372.2190630327331 351.8242361732457Q372.631070085844 358.0337710451312 372.74878638673283 359.1815049787972L372.74878638673283 359.1815049787972Q372.92536083806607 361.7712635983513 368.7170030812906 363.007284757684L368.7170030812906 363.007284757684L363.2726241651825 364.6258838949053Q361.35973427573913 365.0967490984606 359.2702699349625 363.5370081116837Q357.1513765189637 361.94783804968455 357.0630892932971 359.26979220446384L357.0630892932971 359.26979220446384Q355.53277738174233 344.290392916361 350.3826892178563 337.96314174358673L350.3826892178563 337.96314174358673Q347.7929305983022 337.02141133647615 344.64401954952615 337.02141133647615L344.64401954952615 337.02141133647615Q335.1089991775315 336.5505461329209 325.4562625046479 350.52935686346865Q315.8035258317643 364.53759666923867 308.91712222976815 388.6988674266698L308.91712222976815 388.6988674266698Q299.94125428699533 419.3639638082083 305.09134245088137 438.96372790619745L305.09134245088137 438.96372790619745Q307.97539182265757 449.8524857384137 313.80234871665436 451.26508134907954L313.80234871665436 451.26508134907954Q328.13430834986866 450.0290601897469 337.4927542705301 430.16443441475786L337.4927542705301 430.16443441475786Q337.75761594753 429.57585291031376 338.28733930152964 428.48697712709213Q338.8170626555294 427.39810134387056 339.0230661820848 427.0449524412041Q339.1996406334181 426.7212326137598 339.64107676175115 425.897218507538Q340.053083814862 425.1026334765385 340.2590873414175 424.95548810042743Q340.4356617927507 424.80834272431645 340.81823977063937 424.3374775207611Q341.20081774852804 423.8666123172058 341.5539666511945 423.8666123172058Q341.8776864786388 423.8666123172058 342.31912260697186 423.7194669410948Q342.7311296600828 423.5723215649837 343.2608530140825 423.748896016317Q343.79057636808216 423.95489954287245 344.4674450981929 424.1020449189835Q345.11488475308147 424.2491902950945 345.8800407088588 424.63176827298315L345.8800407088588 424.63176827298315L352.0895755807443 427.1920978173151Q353.91417824452105 427.8689665474258 353.97303639496545 430.19386348998006Q354.00246547018764 432.5481895077566 352.6781570851884 435.0202318264218L352.6781570851884 435.0202318264218Q343.49628561586013 451.6476593269682 334.8147084253094 458.5929210794088Q326.1037021595364 465.5087537566272 313.2137672122102 465.5087537566272L313.2137672122102 465.5087537566272Q307.2985230925468 465.5087537566272 300.7064102427727 461.3886832255184L300.7064102427727 461.3886832255184Q290.1119431627786 454.9142866766331 288.05190789722417 433.37220361397834Q285.99187263166976 411.8301205513236 292.87827623366593 384.78480042211635L292.87827623366593 384.78480042211635Q297.2632084417746 366.92135176223735 305.67992395532553 352.3539595272454Q314.0672103936542 337.7865672922535 325.22082990287026 329.281564553036Q336.3450203368641 320.7765618138185 347.7929305983022 320.7765618138185L347.7929305983022 320.7765618138185Q350.17668569130086 320.7765618138185 354.2378980719653 322.10087019881774Q358.2991104526297 323.4546076590392 360.6828655456284 325.27921032281597L360.6828655456284 325.27921032281597ZM375.98598466117545 463.9784418450725L375.98598466117545 463.9784418450725L373.60222956817677 463.9784418450725Q370.07074054151207 463.9784418450725 368.6875740060684 462.2126973317401Q367.2749783954025 460.4469528184078 367.95184712551327 457.68061974752044L367.95184712551327 457.68061974752044L403.79646074616005 319.8348314067079Q404.9147656046039 315.5087573490436 409.62341764015684 315.5087573490436L409.62341764015684 315.5087573490436L414.09663707393213 315.5087573490436Q419.45272876437366 315.5087573490436 418.39328205637423 320.01140585804114L418.39328205637423 320.01140585804114L394.14372407327653 415.44989680365495L412.0071727331555 385.93253435578237Q418.3049948307076 375.33806727578826 425.22082750792595 369.9819755853468Q432.16608926036656 364.6258838949053 437.0218866720306 364.6258838949053L437.0218866720306 364.6258838949053L441.14195720313944 364.6258838949053Q449.44095641580145 364.6258838949053 448.9700912122462 372.6600214305675L448.9700912122462 372.6600214305675Q448.7640876856907 375.8972197050102 447.7340700529135 381.4298858467849L447.7340700529135 381.4298858467849L425.8388380875923 461.21210877418514Q425.2796856583704 463.9784418450725 422.6899270388163 463.9784418450725L422.6899270388163 463.9784418450725L412.56632516237744 463.9784418450725Q411.506878454378 463.9784418450725 410.8888678747117 462.8307079114065Q410.2708572950454 461.68297397774046 410.9477260251561 459.2992188847417L410.9477260251561 459.2992188847417L431.57750775592245 392.14206922766783Q433.0195324418106 386.9919810637818 433.0195324418106 385.25566562567167Q433.0195324418106 383.54877926278374 431.6657949815891 383.54877926278374Q430.3414865965898 383.54877926278374 428.4874548575908 385.34395285133826Q426.60399404336965 387.16855551511503 423.366795768927 391.75949124977916L423.366795768927 391.75949124977916Q419.45272876437366 397.58644814377595 413.3020520429326 407.56290464410375Q407.1219462462693 417.53936114443155 395.76232321049787 435.608813330866Q384.40270017472636 453.6488364420782 381.9895160065055 457.68061974752044Q379.6057609135068 461.68297397774046 379.3114701612847 462.1244101060735Q379.0466084842849 462.5364171591844 378.7523177320628 462.8307079114065Q378.4580269798408 463.12499866362856 378.1931653028409 463.30157311496174Q377.89887455061887 463.50757664151723 377.6045837983968 463.5958638671838L377.6045837983968 463.5958638671838Q376.92771506828603 463.9784418450725 375.98598466117545 463.9784418450725Z " fill="Black" transform="matrix(0.619978642828177,0,0,0.619978642828177,0,57.89292508614963)"/><path d="M669.0780232919828 463.31148951152517L669.0780232919828 463.31148951152517Q669.0780232919828 463.31148951152517 622.3788052378554 463.31148951152517L622.3788052378554 463.31148951152517Q620.0057583982166 463.31148951152517 618.9510709139327 461.5536770377186Q617.9256803042122 459.79586456391206 618.4823209209176 457.30563022601945L618.4823209209176 457.30563022601945L649.3905235853495 335.7821945368597L641.5975549514737 335.7821945368597Q638.638570620566 335.7821945368597 637.9940393801703 334.873991425393Q637.3202112652111 333.9657883139263 638.0819300038606 330.6552414882573L638.0819300038606 330.6552414882573L639.3123987355252 326.17281968005057Q639.9862268504844 323.5946947184676 640.9237268365146 322.9501634780719Q641.8905236971082 322.2763353631127 644.5565392823814 322.2763353631127L644.5565392823814 322.2763353631127L708.0721633359249 322.2763353631127Q710.8260695448885 322.2763353631127 711.6463820326649 323.27242909826975Q712.4373976458778 324.2685228334268 711.7928664054821 327.1103196660807L711.7928664054821 327.1103196660807L710.3573195518734 332.0614914673025Q709.5077101895336 335.7821945368597 705.4940383743419 335.7821945368597L705.4940383743419 335.7821945368597L665.2694295987353 335.7821945368597L653.9608360172465 380.1962563750387L688.3846636292915 380.1962563750387Q690.0838823539711 380.1962563750387 690.8456010926207 381.48531885583014Q691.6073198312702 382.7450844620582 691.1385698382551 384.64938130868194L691.1385698382551 384.64938130868194L689.7030229846464 389.5126624862134Q688.7655229986162 393.61422492509536 683.9022418210848 393.61422492509536L683.9022418210848 393.61422492509536L650.5331016933237 393.61422492509536L636.1776331572369 449.8935209614685L673.5604451001896 449.8935209614685Q675.2596638248692 449.8935209614685 676.0213825635187 451.18258344225995Q676.7831013021682 452.4716459230514 676.3143513091532 454.3759427696752L676.3143513091532 454.3759427696752L674.9666950792348 459.2099270726432Q674.0291950932046 463.31148951152517 669.0780232919828 463.31148951152517ZM736.021381669449 363.17477225367855L736.021381669449 363.17477225367855Q736.021381669449 363.17477225367855 738.9803660003568 363.17477225367855L738.9803660003568 363.17477225367855Q745.5428659025679 363.17477225367855 751.1971626933123 368.2138346785907Q756.8514594840567 373.2528971035028 760.3670844316698 380.7528969917441L760.3670844316698 380.7528969917441Q761.040912546629 382.0126625979721 760.8065375501214 384.0048500682862Q760.5721625536139 385.9970375386003 759.0487250763149 386.93453752463046L759.0487250763149 386.93453752463046L753.2479439127533 390.2743812248629Q751.6366158117639 391.5048499565275 749.9081002125208 391.32906870914684Q748.2088814878412 391.12399058720274 747.6229439965723 389.9814124792285Q747.0663033798669 388.8388343712542 745.7186471499485 385.70406879296587Q744.4002877945936 382.5693032146775 743.4920846831269 381.1044594865054Q742.5838815716602 379.6103188837698 740.4452097285289 377.85250640996327Q738.3065378853976 376.0946939361567 735.6405223001243 375.83102206508573L735.6405223001243 375.83102206508573Q730.8944286208466 376.7685220511159 726.5584911854571 382.2763344690431Q722.2518506246311 387.81344376153373 722.2518506246311 397.68649048941387L722.2518506246311 397.68649048941387Q722.2518506246311 401.9638341756765 724.2440380949452 403.6923497749196Q726.2362255652592 405.39156849959926 731.5682567358058 406.4462559838832L731.5682567358058 406.4462559838832L737.076069153733 407.58883409185745Q748.9706002264907 410.13766217887695 748.9706002264907 427.27633379849084L748.9706002264907 427.27633379849084Q748.9706002264907 437.3544586483151 741.2655222163053 450.655239700118L741.2655222163053 450.655239700118Q737.5448191467481 456.95406773125814 731.3338817392982 461.23141141752075Q725.093647457285 465.50875510378336 717.7694288164244 465.50875510378336L717.7694288164244 465.50875510378336L716.4510694610694 465.50875510378336Q709.009663321955 465.50875510378336 703.17958528383 460.323208306054Q697.3202103711415 455.1376615083247 695.0057572806295 449.74703658865127Q692.6620073155541 444.3857085435413 694.9471635315026 441.719692958268L694.9471635315026 441.719692958268L699.2245072177652 438.2040680106549Q701.3045853117696 436.2118805403408 703.5897415277182 436.44625553684835Q705.8748977436667 436.6806305333559 706.6952102314431 439.9032867353346Q707.486225844656 443.1552398118767 711.4413039107208 447.60836474551996Q715.3963819767855 452.0907865537267 718.736225677018 452.3837552993611L718.736225677018 452.3837552993611Q724.6248974642699 451.4169584387675 728.9022411505325 445.46969290238866Q733.1795848367951 439.5224273660098 733.1795848367951 431.8759431049513Q733.1795848367951 424.2294588438928 731.6561473594961 422.0321932516346Q730.1327098821971 419.8642245339399 725.1815380809753 418.7216464259656L725.1815380809753 418.7216464259656L720.9041943947127 417.754849565372Q713.1991163845273 415.9384433424386 710.1229445553658 411.4853184087953Q707.0174758516409 407.0028966005886 707.0174758516409 399.151334217586Q707.0174758516409 391.32906870914684 711.1190382905229 382.86227196031194Q715.1913038548414 374.39547521147705 722.046772502687 368.7704752952961Q728.9022411505325 363.17477225367855 736.021381669449 363.17477225367855ZM808.2967712174618 334.34664768325104L808.2967712174618 334.34664768325104Q808.2967712174618 334.34664768325104 800.5916932072764 364.40524098534314L800.5916932072764 364.40524098534314L810.8748961790448 364.40524098534314Q813.072161771303 364.40524098534314 813.7166930116987 365.3427409713733Q814.3905211266579 366.3095378319669 813.7166930116987 368.68258467160575L813.7166930116987 368.68258467160575L812.3983336563438 373.72164709651787Q811.1678649246792 377.9989907827805 807.3592712314316 377.9989907827805L807.3592712314316 377.9989907827805L797.1932557579171 377.9989907827805L776.5389591906901 459.03414582526256Q775.3963810827158 463.31148951152517 770.7381780271285 463.31148951152517L770.7381780271285 463.31148951152517L767.0467718321347 463.31148951152517Q763.8827093792829 463.31148951152517 762.6229437730549 461.49508328859173Q761.3338812922634 459.70797394022173 761.8905219089688 457.04195835494846L761.8905219089688 457.04195835494846L782.0467716086173 377.9989907827805L774.4588810966857 377.9989907827805Q772.4666936263716 377.9989907827805 771.8514592605393 377.00289704762343Q771.2069280201436 376.0068033124664 771.8807561351027 373.3407877271931L771.8807561351027 373.3407877271931L773.4041936124017 368.12594405490034Q774.4588810966857 364.40524098534314 777.6815372986644 364.40524098534314L777.6815372986644 364.40524098534314L785.5916934307938 364.40524098534314L793.2967714409792 334.1708664358704Q794.41005267439 329.89352274960777 799.1854432282312 329.89352274960777L799.1854432282312 329.89352274960777L804.0194275311992 329.89352274960777Q809.3514587017457 329.89352274960777 808.2967712174618 334.34664768325104ZM845.8846612823586 457.6864895953442L859.3905204561056 412.1591465237545L841.607317596096 442.10055232759277Q835.3084895649558 452.8525052923762 828.9510677846888 458.06734896466895Q822.5643491298583 463.31148951152517 817.6424742032 463.31148951152517L817.6424742032 463.31148951152517L816.4998960952257 463.31148951152517Q810.49403680972 463.31148951152517 807.0663024857972 456.69039586018715Q803.6385681618744 450.0985990834126 806.5096618690918 439.5224273660098L806.5096618690918 439.5224273660098L826.3729428231059 367.0712565706164Q826.9588803143747 364.40524098534314 829.5077084013942 364.40524098534314L829.5077084013942 364.40524098534314L839.5858332512184 364.40524098534314Q840.6405207355024 364.40524098534314 841.2557551013347 365.5478190933174Q841.870989467167 366.69039720129166 841.2264582267712 369.0634440409305L841.2264582267712 369.0634440409305L821.5389585201378 436.59273990966557Q819.5174741752603 444.5907866654854 822.0955991368432 444.85445853655636L822.0955991368432 444.85445853655636Q824.9373959694972 445.1474272821908 831.7928646173427 434.834927435859Q838.6483332651883 424.52242758952724 854.6151299022645 395.40133427346535Q870.6112234139042 366.3095378319669 871.0799734069192 365.78219408982494Q871.5487233999343 365.254850347683 871.8709890201321 364.96188160204855Q872.2225515148934 364.69820973097757 872.7791921315988 364.55172535816035Q873.3651296228677 364.40524098534314 873.5409108702485 364.40524098534314L873.5409108702485 364.40524098534314L882.3006763647177 364.40524098534314Q883.4432544726919 364.40524098534314 884.2342700859049 365.87008471351527Q885.0545825736813 367.36422531625084 884.4979419569759 369.44430341025526L884.4979419569759 369.44430341025526L860.9139579334046 458.27242708661305Q860.4159110658261 460.9384426718863 859.6248954526131 462.110317654424Q858.8045829648368 463.31148951152517 856.9881767419033 463.31148951152517L856.9881767419033 463.31148951152517L849.019426860647 463.31148951152517Q846.5291925227543 463.31148951152517 845.8260675332317 462.1689114035509Q845.1229425437091 461.02633329557665 845.8846612823586 457.6864895953442L845.8846612823586 457.6864895953442ZM969.5174719400861 319.9911791471642L969.5174719400861 319.9911791471642Q969.5174719400861 319.9911791471642 932.5155193664582 448.37008348416947L932.5155193664582 448.37008348416947Q938.1112224080757 444.20992729616063 944.2049723172718 435.62594304907196L944.2049723172718 435.62594304907196Q946.3143472858396 432.57906809447394 949.0682534948032 434.30758369371705L949.0682534948032 434.30758369371705L953.7264565503906 437.4423492720054Q956.7733315049887 439.4345367423195 954.6639565364209 442.30563044953686L954.6639565364209 442.30563044953686Q946.7830972788547 451.7099271844019 940.0155192546995 456.8075833584409Q933.2772381051078 461.8759426579165 924.1366132413136 464.0732082501747L924.1366132413136 464.0732082501747Q922.906144509649 464.3661769958091 921.910050774492 463.6923488808499Q920.913957039335 463.01852076589074 920.6209882937005 461.99313015617025L920.6209882937005 461.99313015617025L916.9295820987068 451.24117719138684Q913.8827071441087 455.51852087764945 909.3416915867751 459.70797394022173Q904.829972904005 463.8681301282306 901.519426078336 463.8681301282306L901.519426078336 463.8681301282306L901.1385667090112 463.8681301282306Q897.3299730157637 463.8681301282306 891.2948168556945 457.45211459883666Q885.2596606956254 451.03609906944274 884.966691949991 443.6239898048918L884.966691949991 443.6239898048918Q884.5858325806662 428.59469315384575 893.5213793225162 403.72164664948303Q902.4569260643661 378.8486001451203 910.2498946982419 371.8173502498941Q918.0428633321176 364.7861003546679 928.9998944188451 364.7861003546679L928.9998944188451 364.7861003546679Q935.5623943210562 364.7861003546679 941.2752848609275 368.2138346785907L941.2752848609275 368.2138346785907L954.283097167096 319.81539789978353Q955.4256752750703 315.5087573389575 960.2010658289115 315.5087573389575L960.2010658289115 315.5087573389575L965.2401282538235 315.5087573389575Q970.835831295441 315.5087573389575 969.5174719400861 319.9911791471642ZM938.3163005300198 379.14156889075474L938.3163005300198 379.14156889075474Q928.9120037951548 373.8095377202082 922.6131757640147 377.9989907827805L922.6131757640147 377.9989907827805Q912.8280196598248 384.64938130868194 903.5995041723404 417.08102145041283L903.5995041723404 417.08102145041283Q897.0370042701293 440.57711485029375 901.0213792107575 445.7040678988962L901.0213792107575 445.7040678988962Q903.1307541793253 448.48727098242324 906.6463791269384 446.2021147664747L906.6463791269384 446.2021147664747Q915.7870039907325 440.2841461046593 923.0526288824663 424.37594321671Q930.3182537742 408.4384434541973 938.3163005300198 379.14156889075474ZM991.6659091100487 353.6532880205597Q988.238174786126 353.6532880205597 985.6893466991064 350.84078806246924Q983.1112217375235 348.05758497894215 983.1112217375235 344.19039753656773Q983.1112217375235 340.35250696875676 985.8651279464871 337.5400070106663Q988.6190341554507 334.7275070525758 992.6034090960788 334.7275070525758L992.6034090960788 334.7275070525758L994.4198153190123 334.7275070525758Q997.6717683955544 334.7275070525758 1000.425674604518 337.6864913834835Q1003.1795808134816 340.61617883982774 1003.1795808134816 344.3954756585118Q1003.1795808134816 348.1454756026325 1000.2791902317009 350.89938181159613Q997.37879964992 353.6532880205597 993.1893465873477 353.6532880205597L993.1893465873477 353.6532880205597L991.6659091100487 353.6532880205597ZM996.1483309182554 368.5068034242251L996.1483309182554 368.5068034242251L972.5643468946843 459.03414582526256Q971.4217687867099 463.31148951152517 966.7635657311225 463.31148951152517L966.7635657311225 463.31148951152517L961.0506751912512 463.31148951152517Q955.7186440207048 463.31148951152517 956.7733315049887 458.82906770331846L956.7733315049887 458.82906770331846L980.5330967759405 368.301725302281Q981.5877842602245 364.40524098534314 986.0409091938677 364.40524098534314L986.0409091938677 364.40524098534314L992.4276278486982 364.40524098534314Q995.0057528102813 364.40524098534314 995.855362172621 365.31344409680986Q996.7049715349609 366.2216472082766 996.1483309182554 368.5068034242251ZM1030.1912991609756 442.8622710662423L1030.1912991609756 442.8622710662423Q1043.5799708364689 421.7392245060002 1044.253798951428 396.2509436358052L1044.253798951428 396.2509436358052Q1044.5467676970625 384.85445943062604 1043.0819239688904 380.9579751136882Q1041.5877833661548 377.0614907967503 1037.2225490562018 376.9150064239331Q1032.857314746249 376.7685220511159 1029.283096049509 380.9872719882516Q1025.708877352769 385.2353187999508 1022.3983305270999 392.1786780714867L1022.3983305270999 392.1786780714867Q1013.5506744089404 410.4306309245114 1012.8768462939811 433.1650055857428L1012.8768462939811 433.1650055857428Q1012.4959869246564 450.77242719837176 1018.9705962031773 451.24117719138684L1018.9705962031773 451.24117719138684Q1024.654189868485 451.4169584387675 1030.1912991609756 442.8622710662423ZM997.0858309042857 435.06930243236656L997.0858309042857 435.06930243236656Q998.0526277648792 408.81930282352204 1007.9256744927593 389.89352185553815L1007.9256744927593 389.89352185553815Q1012.203018179022 381.5146157303936 1014.9569243879856 377.76461578627294Q1017.7108305969491 374.0146158421523 1021.6366117884504 370.2939127725951L1021.6366117884504 370.2939127725951Q1029.693252293397 362.5888347624097 1041.1190333731397 362.7939128843538L1041.1190333731397 362.7939128843538Q1050.9041894773295 363.2626628773689 1056.3241112715664 372.5790689885436L1056.3241112715664 372.5790689885436Q1060.337783086758 378.9657876433741 1059.810439344616 393.8485999216029Q1059.283095602474 408.7314121998317 1054.771376919704 422.94039636310134Q1050.2596582369338 437.149380526371 1044.6346583207528 446.6708647594898L1044.6346583207528 446.6708647594898Q1033.4139553629543 465.3915676055296 1016.0116118722694 464.8349269888242L1016.0116118722694 464.8349269888242Q1009.6541900920024 464.54195824318975 1004.4979401688365 459.4150051945873L1004.4979401688365 459.4150051945873Q1001.0702058449137 456.19234899260863 998.9315340017826 449.86422408690504Q996.7928621586512 443.53609918120145 997.0858309042857 435.06930243236656ZM1131.763563272431 439.9032867353346L1131.763563272431 439.9032867353346Q1134.9862194744096 451.03609906944274 1142.1053599933261 451.03609906944274L1142.1053599933261 451.03609906944274Q1152.4764535887848 451.03609906944274 1160.2694222226605 440.8700835959282L1160.2694222226605 440.8700835959282Q1169.7909064557793 427.6571931678156 1178.550671950249 399.2099279667129L1178.550671950249 399.2099279667129Q1186.8123905771395 372.2861002429092 1184.6151249848813 354.32711613551885L1184.6151249848813 354.32711613551885Q1183.5897343751608 346.1532881323184 1180.4549687968724 341.43649132760413Q1177.320203218584 336.7196945228899 1172.3690314173623 336.7196945228899L1172.3690314173623 336.7196945228899Q1161.6170784525789 336.7196945228899 1153.2381723274343 347.5595381113637L1153.2381723274343 347.5595381113637Q1143.0721568539198 361.0653972851107 1134.546766355958 390.71383434331455Q1126.0506727325596 420.33297452695496 1131.763563272431 439.9032867353346ZM1113.4823135448428 421.09469326560446L1113.4823135448428 421.09469326560446Q1113.4823135448428 394.84469365675994 1125.8455946106155 366.0165690863325L1125.8455946106155 366.0165690863325Q1139.4686412826163 334.63961642888546 1158.775281619925 324.4736009553709L1158.775281619925 324.4736009553709Q1165.8065315151512 320.7528978858137 1173.2186407797021 320.7528978858137Q1180.630750044253 320.7528978858137 1190.0643436536816 326.17281968005057L1190.0643436536816 326.17281968005057Q1196.245984186568 329.89352274960777 1198.5018435279533 337.9794601291179Q1200.7869997439016 346.0361006340646 1200.7869997439016 361.50485040356233Q1200.7869997439016 376.94430329849655 1193.9608279706194 402.9306310362701L1193.9608279706194 402.9306310362701Q1181.9784062741714 448.6630522298039 1156.8709847733012 460.6454739262519L1156.8709847733012 460.6454739262519Q1149.4295786341868 464.2489894975553 1141.167860007296 464.2489894975553L1141.167860007296 464.2489894975553Q1134.6053601050849 464.2489894975553 1127.5741102098586 460.55758330256157L1127.5741102098586 460.55758330256157Q1113.4823135448428 453.1454740380106 1113.4823135448428 421.09469326560446ZM1237.1151242025705 368.5068034242251L1231.4315305372627 390.56734997049733Q1244.0584834741064 370.0302409015241 1251.0018427456423 365.3427409713733L1251.0018427456423 365.3427409713733Q1253.2869989615908 363.73141287038396 1259.1756707488428 363.73141287038396L1259.1756707488428 363.73141287038396L1261.0799675954665 363.73141287038396Q1266.7049675116475 363.73141287038396 1265.0057487869678 368.12594405490034L1265.0057487869678 368.12594405490034Q1264.1268425500646 370.4989908945392 1260.2303582331267 373.9560220930254Q1256.3338739161888 377.4423501660751 1249.859264637668 385.61617816927554Q1243.4139522337107 393.790006172476 1243.4139522337107 396.2509436358052L1243.4139522337107 396.2509436358052Q1243.4139522337107 401.4071935589711 1248.2479365366787 405.86031849261434L1248.2479365366787 405.86031849261434Q1249.390514644653 406.82711535320794 1248.9803584007648 407.9696934611822Q1248.5409052823131 409.11227156915646 1246.9295771813238 409.37594344022745L1246.9295771813238 409.37594344022745L1239.5174679167728 410.7235996701458Q1236.353405463921 411.1923496631609 1234.7420773629317 410.0204746806232Q1233.1307492619424 408.81930282352204 1230.6698117986132 404.1610997679347L1230.6698117986132 404.1610997679347L1229.0291868230604 401.202115437027L1214.0291870465776 459.03414582526256Q1212.8866089386033 463.31148951152517 1208.1112183847622 463.31148951152517L1208.1112183847622 463.31148951152517L1202.5155153431447 463.31148951152517Q1197.1834841725981 463.31148951152517 1198.238171656882 458.82906770331846L1198.238171656882 458.82906770331846L1221.997936927834 368.301725302281Q1223.052624412118 364.40524098534314 1227.417858722071 364.40524098534314L1227.417858722071 364.40524098534314L1233.4237180075768 364.40524098534314Q1235.9725460945963 364.40524098534314 1236.8514523314996 365.31344409680986Q1237.7010616938394 366.2216472082766 1237.1151242025705 368.5068034242251L1237.1151242025705 368.5068034242251ZM1302.1834826079764 334.34664768325104L1302.1834826079764 334.34664768325104Q1302.1834826079764 334.34664768325104 1294.478404597791 364.40524098534314L1294.478404597791 364.40524098534314L1304.732310694996 364.40524098534314Q1306.9295762872541 364.40524098534314 1307.6034044022133 365.3427409713733Q1308.2772325171725 366.3095378319669 1307.6034044022133 368.68258467160575L1307.6034044022133 368.68258467160575L1306.255748172295 373.72164709651787Q1305.0252794406304 377.9989907827805 1301.2166857473828 377.9989907827805L1301.2166857473828 377.9989907827805L1291.0506702738683 377.9989907827805L1270.4256705812047 459.03414582526256Q1269.2830924732305 463.31148951152517 1264.624889417643 463.31148951152517L1264.624889417643 463.31148951152517L1260.904186348086 463.31148951152517Q1257.7694207697975 463.31148951152517 1256.480358289006 461.49508328859173Q1255.1912958082146 459.70797394022173 1255.7772332994834 457.04195835494846L1255.7772332994834 457.04195835494846L1275.933482999132 377.9989907827805L1268.3162956126368 377.9989907827805Q1266.3241081423228 377.9989907827805 1265.7088737764905 377.00289704762343Q1265.0936394106582 376.0068033124664 1265.738170651054 373.3407877271931L1265.738170651054 373.3407877271931L1267.261608128353 368.12594405490034Q1268.3162956126368 364.40524098534314 1271.5389518146155 364.40524098534314L1271.5389518146155 364.40524098534314L1279.449107946745 364.40524098534314L1287.1541859569304 334.1708664358704Q1288.2967640649047 329.89352274960777 1293.0428577441824 329.89352274960777L1293.0428577441824 329.89352274960777L1297.9061389217138 329.89352274960777Q1303.208873217697 329.89352274960777 1302.1834826079764 334.34664768325104ZM1331.3631696731652 353.6532880205597Q1327.9354353492424 353.6532880205597 1325.386607262223 350.84078806246924Q1322.80848230064 348.05758497894215 1322.80848230064 344.19039753656773Q1322.80848230064 340.35250696875676 1325.5623885096036 337.5400070106663Q1328.3162947185672 334.7275070525758 1332.3299665337588 334.7275070525758L1332.3299665337588 334.7275070525758L1334.1170758821288 334.7275070525758Q1337.369028958671 334.7275070525758 1340.1229351676345 337.6864913834835Q1342.8768413765981 340.61617883982774 1342.8768413765981 344.3954756585118Q1342.8768413765981 348.1454756026325 1339.9764507948173 350.89938181159613Q1337.0760602130365 353.6532880205597 1332.8866071504642 353.6532880205597L1332.8866071504642 353.6532880205597L1331.3631696731652 353.6532880205597ZM1335.845591481372 368.5068034242251L1335.845591481372 368.5068034242251L1312.2616074578007 459.03414582526256Q1311.1190293498264 463.31148951152517 1306.460826294239 463.31148951152517L1306.460826294239 463.31148951152517L1300.7479357543677 463.31148951152517Q1295.4159045838212 463.31148951152517 1296.4705920681051 458.82906770331846L1296.4705920681051 458.82906770331846L1320.2596542136205 368.301725302281Q1321.285044823341 364.40524098534314 1325.7674666315477 364.40524098534314L1325.7674666315477 364.40524098534314L1332.1248884118147 364.40524098534314Q1334.7030133733977 364.40524098534314 1335.5526227357375 365.31344409680986Q1336.4022320980773 366.2216472082766 1335.845591481372 368.5068034242251ZM1407.74012166006 379.90328762940425L1348.5897319164694 450.8603178220621L1376.6561377482474 450.8603178220621L1379.878793950226 438.409146132599Q1380.728403312566 434.4833649410977 1385.8553563611683 434.10250557177295L1385.8553563611683 434.10250557177295L1389.9569188000503 433.7216462024482Q1392.5350437616332 433.54586495506754 1393.6776218696075 434.77633368673213Q1394.8201999775818 436.0068024183967 1394.234262486313 438.409146132599L1394.234262486313 438.409146132599L1388.814340692076 459.03414582526256Q1387.6717625841018 463.31148951152517 1383.0135595285144 463.31148951152517L1383.0135595285144 463.31148951152517L1336.783091467402 463.31148951152517Q1332.8866071504642 463.31148951152517 1331.0409040529673 461.23141141752075Q1329.1952009554705 459.1220364489529 1329.5174665756683 456.28023961629896Q1329.8397321958662 453.4091459090816 1331.949107164434 451.03609906944274L1331.949107164434 451.03609906944274L1393.0037937546483 376.8564126748062L1365.6991066615199 376.8564126748062L1362.4764504595412 389.3075843642693Q1361.6268410972013 393.2333655557706 1356.4705911740355 393.61422492509536L1356.4705911740355 393.61422492509536L1352.1932474877729 393.9950842944201Q1349.6444194007533 394.17086554180077 1348.501841292779 392.9403968101362Q1347.3592631848048 391.7099280784716 1347.9159038015102 389.3075843642693L1347.9159038015102 389.3075843642693L1353.5409037176912 368.301725302281Q1354.6834818256655 364.40524098534314 1359.224497382999 364.40524098534314L1359.224497382999 364.40524098534314L1402.9940279807822 364.40524098534314Q1406.0409029353802 364.40524098534314 1408.5018403987094 366.4560222047841Q1410.9627778620386 368.5068034242251 1411.3143403568 371.90524087358443Q1411.6366059769978 375.3329751975072 1407.74012166006 379.90328762940425L1407.74012166006 379.90328762940425Z " fill="red" transform="matrix(0.619978642828177,0,0,0.619978642828177,0,57.89292508614963)"/></g></svg>